Coordinates
version=1
nRows=54
nColumns=12
inDegrees=yes

Units are S.I. units (second, meters, Newtons, ...)
Angles are in degrees

endheader
time	SC_y	SC_z	SC_x	AC_y	AC_z	AC_x	GH_y	GH_z	GH_yy	EL_x	PS_y
       0.0              -32.53          1.752          23.32          45.67         -13.25         -4.678          82.13          62.55         -2.118          127.3          5.702
   0.04059              -32.53          1.753          23.32          45.66         -13.25         -4.678          82.14          62.55         -2.133          127.3          5.712
   0.08118              -32.53          1.753          23.33          45.66         -13.24         -4.678          82.14          62.54         -2.148          127.3          5.722
    0.1218              -32.52          1.754          23.34          45.66         -13.24         -4.678          82.15          62.53         -2.165          127.3          5.733
    0.1624              -32.52          1.754          23.35          45.66         -13.24         -4.677          82.15          62.52         -2.182          127.3          5.745
     0.203              -32.52          1.755          23.36          45.66         -13.23         -4.677          82.16          62.52         -2.201          127.3          5.758
    0.2436              -32.51          1.755          23.37          45.66         -13.23         -4.677          82.17          62.51          -2.22          127.3          5.771
    0.2841              -32.51          1.756          23.38          45.66         -13.22         -4.677          82.17           62.5         -2.241          127.3          5.786
    0.3247               -32.5          1.757           23.4          45.65         -13.22         -4.677          82.18          62.49         -2.264          127.3          5.801
    0.3653               -32.5          1.757          23.41          45.65         -13.21         -4.676          82.19          62.47         -2.288          127.3          5.818
    0.4059              -32.49          1.758          23.42          45.65         -13.21         -4.676           82.2          62.46         -2.315          127.3          5.835
    0.4465              -32.49          1.759          23.44          45.65          -13.2         -4.676          82.21          62.45         -2.343          127.3          5.855
    0.4871              -32.48           1.76          23.45          45.65         -13.19         -4.675          82.22          62.43         -2.373          127.3          5.875
    0.5277              -32.47          1.761          23.47          45.64         -13.19         -4.675          82.23          62.42         -2.406          127.3          5.897
    0.5683              -32.47          1.762          23.49          45.64         -13.18         -4.675          82.24           62.4         -2.441          127.3          5.922
    0.6089              -32.46          1.763          23.51          45.64         -13.17         -4.674          82.26          62.38         -2.479          127.3          5.948
    0.6495              -32.45          1.764          23.53          45.63         -13.16         -4.674          82.27          62.36         -2.521          127.3          5.976
    0.6901              -32.44          1.766          23.56          45.63         -13.15         -4.673          82.29          62.34         -2.567          127.3          6.007
    0.7307              -32.43          1.767          23.58          45.63         -13.14         -4.673          82.31          62.32         -2.616          127.3          6.041
    0.7713              -32.42          1.769          23.61          45.62         -13.13         -4.672          82.33          62.29         -2.671          127.3          6.078
    0.8118              -32.41           1.77          23.65          45.62         -13.11         -4.671          82.35          62.27          -2.73          127.3          6.119
    0.8524              -32.39          1.772          23.68          45.61          -13.1         -4.671          82.37          62.24         -2.796          127.3          6.163
     0.893              -32.38          1.774          23.72          45.61         -13.08          -4.67           82.4           62.2         -2.869          127.4          6.213
    0.9336              -32.36          1.777          23.76           45.6         -13.07         -4.669          82.42          62.16         -2.949          127.4          6.268
    0.9742              -32.34          1.779          23.81          45.59         -13.05         -4.668          82.46          62.12         -3.038          127.4          6.328
     1.015              -32.32          1.782          23.87          45.58         -13.02         -4.667          82.49          62.07         -3.138          127.4          6.396
     1.055               -32.3          1.786          23.93          45.57          -13.0         -4.665          82.53          62.02          -3.25          127.4          6.472
     1.096              -32.27          1.789          23.99          45.56         -12.97         -4.664          82.58          61.96         -3.375          127.4          6.558
     1.137              -32.24          1.794          24.07          45.55         -12.94         -4.662          82.63           61.9         -3.517          127.4          6.655
     1.177              -32.21          1.798          24.16          45.54          -12.9         -4.661          82.68          61.82         -3.679          127.4          6.764
     1.218              -32.17          1.804          24.26          45.52         -12.86         -4.658          82.75          61.73         -3.863          127.5           6.89
     1.258              -32.13           1.81          24.37          45.51         -12.82         -4.656          82.82          61.63         -4.074          127.5          7.034
     1.299              -32.08          1.817           24.5          45.49         -12.76         -4.653          82.91          61.52         -4.318          127.5            7.2
      1.34              -32.02          1.826          24.65          45.46          -12.7          -4.65          83.01          61.39         -4.601          127.6          7.393
      1.38              -31.95          1.835          24.83          45.44         -12.63         -4.646          83.13          61.23         -4.932          127.6          7.618
     1.421              -31.87          1.847          25.04          45.41         -12.54         -4.642          83.27          61.05         -5.323          127.6          7.884
     1.461              -31.77          1.861          25.29          45.37         -12.44         -4.637          83.43          60.83         -5.787          127.7          8.201
     1.502              -31.65          1.877          25.59          45.32         -12.31          -4.63          83.63          60.57         -6.344          127.8           8.58
     1.543              -31.51          1.897          25.96          45.27         -12.16         -4.623          83.87          60.25         -7.017          127.8          9.038
     1.583              -31.34          1.921           26.4           45.2         -11.98         -4.614          84.16          59.86          -7.84          127.9          9.599
     1.624              -31.13          1.951          26.95          45.12         -11.75         -4.602          84.52          59.39         -8.855          128.0          10.29
     1.664              -30.87          1.989          27.63          45.02         -11.47         -4.588          84.97          58.79         -10.12          128.2          11.15
     1.705              -30.54          2.036          28.49          44.89         -11.12          -4.57          85.54          58.04         -11.72          128.4          12.24
     1.745              -30.11          2.096          29.58          44.72         -10.67         -4.547          86.26          57.09         -13.74          128.6          13.62
     1.786              -29.57          2.173          30.98          44.51         -10.09         -4.518          87.18          55.87         -16.34          128.9          15.39
     1.827              -28.88          2.271          32.78          44.24         -9.351          -4.48          88.36           54.3         -19.67          129.3          17.65
     1.867               -28.0          2.397          35.07           43.9         -8.405         -4.432          89.87           52.3         -23.92          129.8          20.55
     1.908              -26.88          2.555          37.96          43.46         -7.217         -4.372          91.77          49.79         -29.27          130.4          24.19
     1.948              -25.53          2.748          41.47          42.94         -5.769         -4.298          94.08          46.72         -35.79          131.2          28.63
     1.989              -23.95          2.971          45.54          42.32          -4.09         -4.213          96.77          43.17         -43.34          132.0          33.78
      2.03              -22.25          3.213          49.95          41.66         -2.272         -4.121          99.67          39.32         -51.52          133.0          39.35
      2.07              -20.55          3.455          54.36           41.0        -0.4545         -4.028          102.6          35.48          -59.7          133.9          44.92
     2.111              -18.98          3.678          58.44          40.38          1.224         -3.943          105.3          31.93         -67.26          134.8          50.07
     2.151              -17.62          3.871          61.95          39.85          2.673         -3.869          107.6          28.86         -73.78          135.6          54.51
